<?xml version="1.0" standalone="no"?>
<!DOCTYPE svg PUBLIC "-//W3C//DTD SVG 20010904//EN"
 "http://www.w3.org/TR/2001/REC-SVG-20010904/DTD/svg10.dtd">
<svg version="1.0" xmlns="http://www.w3.org/2000/svg"
 width="512.000000pt" height="512.000000pt" viewBox="0 0 512.000000 512.000000"
 preserveAspectRatio="xMidYMid meet">

<g transform="translate(0.000000,512.000000) scale(0.100000,-0.100000)"
fill="#000000" stroke="none">
<path d="M2523 3319 c-50 -15 -119 -100 -143 -175 -41 -134 -36 -315 12 -426
41 -96 135 -150 220 -127 84 22 132 96 153 237 l7 42 -46 0 -46 0 0 -36 c0
-133 -86 -214 -164 -153 -40 31 -65 90 -78 179 -21 147 18 332 80 380 27 22
72 26 104 9 27 -15 58 -85 58 -136 l0 -43 41 0 42 0 -6 61 c-6 71 -45 143 -92
171 -38 22 -101 30 -142 17z"/>
<path d="M410 1985 l0 -195 580 0 580 0 0 195 0 195 -580 0 -580 0 0 -195z"/>
<path d="M2102 2169 c-50 -15 -107 -78 -121 -134 -41 -162 127 -294 276 -217
65 34 98 91 98 168 0 53 -4 69 -30 105 -17 24 -44 51 -62 61 -38 23 -116 31
-161 17z"/>
<path d="M2760 1985 l0 -195 585 0 585 0 0 195 0 195 -585 0 -585 0 0 -195z"/>
<path d="M4445 2161 c-169 -78 -145 -316 36 -361 60 -15 116 0 166 43 45 40
63 82 63 148 0 75 -34 129 -102 163 -61 31 -108 33 -163 7z"/>
</g>
</svg>
